<mxfile host="app.diagrams.net" modified="2023-10-23T13:54:57.979Z" agent="Mozilla/5.0 (Windows NT 10.0; Win64; x64) AppleWebKit/537.36 (KHTML, like Gecko) Chrome/118.0.0.0 Safari/537.36 Edg/118.0.2088.46" etag="c2QNZMzYkkkd85qLTmSi" version="22.0.6" type="device">
  <diagram name="Page-1" id="Zet1mEU2851klq67M5IV">
    <mxGraphModel dx="1848" dy="1041" grid="1" gridSize="10" guides="1" tooltips="1" connect="1" arrows="1" fold="1" page="1" pageScale="1" pageWidth="827" pageHeight="1169" math="0" shadow="0">
      <root>
        <mxCell id="0" />
        <mxCell id="1" parent="0" />
        <mxCell id="Ef_VrZ8dQyvJ3FVX7_wV-4" value="" style="edgeStyle=orthogonalEdgeStyle;rounded=0;orthogonalLoop=1;jettySize=auto;html=1;" edge="1" parent="1" source="Ef_VrZ8dQyvJ3FVX7_wV-1" target="Ef_VrZ8dQyvJ3FVX7_wV-2">
          <mxGeometry relative="1" as="geometry" />
        </mxCell>
        <mxCell id="Ef_VrZ8dQyvJ3FVX7_wV-1" value="START" style="rounded=1;whiteSpace=wrap;html=1;" vertex="1" parent="1">
          <mxGeometry x="100" y="40" width="120" height="60" as="geometry" />
        </mxCell>
        <mxCell id="Ef_VrZ8dQyvJ3FVX7_wV-8" value="" style="edgeStyle=orthogonalEdgeStyle;rounded=0;orthogonalLoop=1;jettySize=auto;html=1;" edge="1" parent="1" target="Ef_VrZ8dQyvJ3FVX7_wV-6">
          <mxGeometry relative="1" as="geometry">
            <mxPoint x="160" y="200" as="sourcePoint" />
          </mxGeometry>
        </mxCell>
        <mxCell id="Ef_VrZ8dQyvJ3FVX7_wV-2" value="N1" style="html=1;strokeWidth=2;shape=manualInput;whiteSpace=wrap;rounded=1;size=26;arcSize=11;" vertex="1" parent="1">
          <mxGeometry x="110" y="150" width="100" height="60" as="geometry" />
        </mxCell>
        <mxCell id="Ef_VrZ8dQyvJ3FVX7_wV-19" value="" style="edgeStyle=orthogonalEdgeStyle;rounded=0;orthogonalLoop=1;jettySize=auto;html=1;" edge="1" parent="1" source="Ef_VrZ8dQyvJ3FVX7_wV-6" target="Ef_VrZ8dQyvJ3FVX7_wV-12">
          <mxGeometry relative="1" as="geometry" />
        </mxCell>
        <mxCell id="Ef_VrZ8dQyvJ3FVX7_wV-6" value="N2" style="html=1;strokeWidth=2;shape=manualInput;whiteSpace=wrap;rounded=1;size=26;arcSize=11;" vertex="1" parent="1">
          <mxGeometry x="110" y="250" width="100" height="60" as="geometry" />
        </mxCell>
        <mxCell id="Ef_VrZ8dQyvJ3FVX7_wV-16" value="" style="edgeStyle=orthogonalEdgeStyle;rounded=0;orthogonalLoop=1;jettySize=auto;html=1;" edge="1" parent="1" source="Ef_VrZ8dQyvJ3FVX7_wV-12">
          <mxGeometry relative="1" as="geometry">
            <mxPoint x="160" y="537" as="targetPoint" />
          </mxGeometry>
        </mxCell>
        <mxCell id="Ef_VrZ8dQyvJ3FVX7_wV-12" value="NT = N1 + N2" style="rounded=1;whiteSpace=wrap;html=1;absoluteArcSize=1;arcSize=14;strokeWidth=2;" vertex="1" parent="1">
          <mxGeometry x="110" y="362" width="100" height="100" as="geometry" />
        </mxCell>
        <mxCell id="Ef_VrZ8dQyvJ3FVX7_wV-14" value="END" style="rounded=1;whiteSpace=wrap;html=1;" vertex="1" parent="1">
          <mxGeometry x="100" y="610" width="120" height="60" as="geometry" />
        </mxCell>
        <mxCell id="Ef_VrZ8dQyvJ3FVX7_wV-17" value="" style="edgeStyle=orthogonalEdgeStyle;rounded=0;orthogonalLoop=1;jettySize=auto;html=1;" edge="1" parent="1" source="Ef_VrZ8dQyvJ3FVX7_wV-15" target="Ef_VrZ8dQyvJ3FVX7_wV-14">
          <mxGeometry relative="1" as="geometry" />
        </mxCell>
        <mxCell id="Ef_VrZ8dQyvJ3FVX7_wV-15" value="NT" style="strokeWidth=2;html=1;shape=mxgraph.flowchart.display;whiteSpace=wrap;" vertex="1" parent="1">
          <mxGeometry x="110" y="490" width="100" height="60" as="geometry" />
        </mxCell>
      </root>
    </mxGraphModel>
  </diagram>
</mxfile>
